<?xml version="1.0" encoding="UTF-8" standalone="no"?><!DOCTYPE svg PUBLIC "-//W3C//DTD SVG 1.1//EN" "http://www.w3.org/Graphics/SVG/1.1/DTD/svg11.dtd"><svg width="100%" height="100%" viewBox="0 0 517 161" version="1.1" xmlns="http://www.w3.org/2000/svg" xmlns:xlink="http://www.w3.org/1999/xlink" xml:space="preserve" xmlns:serif="http://www.serif.com/" style="fill-rule:evenodd;clip-rule:evenodd;stroke-linejoin:round;stroke-miterlimit:2;"><g id="pagbank"><path d="M72.533,152.693c-39.766,0 -72.117,-32.352 -72.117,-72.116c0,-39.766 32.351,-72.118 72.117,-72.118c39.765,0 72.117,32.352 72.117,72.118c-0,39.764 -32.352,72.116 -72.117,72.116" style="fill:#030405;fill-rule:nonzero;"/><path d="M72.533,12.97c-37.278,-0 -67.607,30.328 -67.607,67.607c0,37.277 30.329,67.606 67.607,67.606c37.278,-0 67.607,-30.329 67.607,-67.606c-0,-37.279 -30.329,-67.607 -67.607,-67.607" style="fill:#030405;fill-rule:nonzero;"/><path d="M132.5,70.803c0,33.119 -26.848,59.968 -59.967,59.968c-33.119,-0 -59.967,-26.849 -59.967,-59.968c-0,-33.118 26.848,-59.967 59.967,-59.967c33.119,0 59.967,26.849 59.967,59.967" style="fill:#dde460;fill-rule:nonzero;"/><path d="M72.533,12.37c-31.823,-0 -57.712,25.89 -57.712,57.713c0,31.822 25.889,57.711 57.712,57.711c31.822,-0 57.712,-25.889 57.712,-57.711c-0,-31.823 -25.89,-57.713 -57.712,-57.713m-0,119.935c-34.309,-0 -62.222,-27.913 -62.222,-62.222c-0,-34.311 27.913,-62.224 62.222,-62.224c34.309,0 62.222,27.913 62.222,62.224c0,34.309 -27.913,62.222 -62.222,62.222" style="fill:#030405;fill-rule:nonzero;"/><path d="M111.156,108.696c-5.76,26.879 -32.219,43.999 -59.097,38.238c-26.878,-5.759 -43.998,-32.218 -38.238,-59.097c5.76,-26.878 32.218,-43.998 59.097,-38.238c26.878,5.76 43.998,32.219 38.238,59.097" style="fill:#a7dcda;fill-rule:nonzero;"/><path d="M62.479,50.744c-21.919,0 -41.679,15.288 -46.453,37.565c-2.66,12.411 -0.327,25.115 6.568,35.771c6.895,10.657 17.527,17.99 29.938,20.65c12.411,2.659 25.114,0.327 35.77,-6.569c10.656,-6.894 17.989,-17.526 20.649,-29.937c5.49,-25.62 -10.886,-50.929 -36.506,-56.42c-3.341,-0.717 -6.679,-1.06 -9.966,-1.06m0.114,99.568c-3.658,-0 -7.344,-0.388 -11.006,-1.173c-13.589,-2.911 -25.23,-10.941 -32.78,-22.608c-7.549,-11.668 -10.104,-25.577 -7.191,-39.166c6.011,-28.051 33.721,-45.984 61.775,-39.971c28.051,6.012 45.982,33.724 39.97,61.774c-2.911,13.59 -10.941,25.231 -22.609,32.78c-8.523,5.515 -18.242,8.364 -28.159,8.364" style="fill:#030405;fill-rule:nonzero;"/><path d="M136.848,100.366c-0,17.056 -13.827,30.883 -30.883,30.883c-17.057,-0 -30.883,-13.827 -30.883,-30.883c-0,-17.057 13.826,-30.883 30.883,-30.883c17.056,-0 30.883,13.826 30.883,30.883" style="fill:#f6df3e;fill-rule:nonzero;"/><path d="M105.965,71.738c-15.786,-0 -28.628,12.843 -28.628,28.628c0,15.785 12.842,28.627 28.628,28.627c15.785,0 28.627,-12.842 28.627,-28.627c0,-15.785 -12.842,-28.628 -28.627,-28.628m-0,61.766c-18.273,-0 -33.138,-14.866 -33.138,-33.138c-0,-18.272 14.865,-33.139 33.138,-33.139c18.272,0 33.138,14.867 33.138,33.139c-0,18.272 -14.866,33.138 -33.138,33.138" style="fill:#030405;fill-rule:nonzero;"/><path d="M198.307,57.245l-6.641,-0l-4.087,19.073l4.257,-0c8.345,-0 16.008,-1.873 16.008,-11.836c-0,-4.512 -4.683,-7.237 -9.537,-7.237m-1.532,27.417l-10.899,-0l-4.427,21.031l-12.432,-0l12.091,-56.792l23.415,0c9.536,0 16.007,6.726 16.007,14.39c0,15.241 -12.091,21.371 -23.755,21.371" style="fill:#231f20;fill-rule:nonzero;"/><path d="M251.269,69.932c-9.791,-0 -18.732,10.388 -18.732,21.797c0,3.832 1.363,6.982 5.79,6.982c5.96,0 11.665,-8.174 14.049,-18.391l2.299,-9.878c-1.107,-0.425 -2.299,-0.51 -3.406,-0.51m10.643,20.605c-1.533,6.897 -1.958,11.92 -2.043,15.156l-12.006,-0c0.171,-2.129 0.937,-6.131 1.618,-10.048c-3.065,5.535 -8.089,10.985 -16.433,10.985c-8.599,-0 -12.941,-5.705 -12.941,-13.624c-0,-19.158 17.113,-30.993 33.376,-30.993c4.939,0 11.324,0.852 14.305,1.959l-5.876,26.565Z" style="fill:#231f20;fill-rule:nonzero;"/><path d="M300.825,70.017c-9.792,0 -18.902,10.047 -18.902,21.967c0,3.832 1.362,6.642 5.534,6.642c8.004,-0 12.431,-10.217 14.219,-17.795l2.47,-10.303c-1.107,-0.341 -2.214,-0.511 -3.321,-0.511m8.344,29.971c-3.832,17.199 -10.132,25.033 -29.034,25.033c-5.705,-0 -11.154,-1.107 -14.815,-2.384l2.299,-8.43c4.087,2.214 8.429,2.896 12.26,2.896c10.644,-0 14.731,-5.62 16.689,-13.623l1.362,-5.62c-4.087,5.449 -8.344,7.833 -15.411,7.833c-8.77,-0 -13.028,-5.449 -13.028,-12.687c0,-19.243 17.541,-30.908 33.889,-30.908c4.682,0 10.558,0.851 13.793,1.874l-8.004,36.016Z" style="fill:#231f20;fill-rule:nonzero;"/><path d="M347.231,56.479l-7.067,0l-3.406,16.263l6.045,-0c6.641,-0 13.113,-2.555 13.113,-10.132c-0,-4.769 -4.768,-6.131 -8.685,-6.131m-6.642,23.756l-5.364,-0l-3.831,17.88l5.874,-0c7.153,-0 14.561,-2.214 14.561,-10.983c-0,-5.961 -6.642,-6.897 -11.24,-6.897m13.965,-3.917c6.13,1.362 10.046,5.279 10.046,11.239c0,14.645 -13.963,18.136 -25.713,18.136l-21.032,-0l12.091,-56.792l22.734,-0c7.578,-0 15.752,3.491 15.752,11.92c-0,8.344 -5.62,13.964 -13.878,15.497" style="fill:#231f20;fill-rule:nonzero;"/><path d="M400.874,69.932c-9.792,-0 -18.732,10.388 -18.732,21.797c-0,3.832 1.362,6.982 5.79,6.982c5.96,0 11.665,-8.174 14.049,-18.391l2.299,-9.878c-1.107,-0.425 -2.299,-0.51 -3.406,-0.51m10.643,20.605c-1.533,6.897 -1.959,11.92 -2.043,15.156l-12.006,-0c0.171,-2.129 0.936,-6.131 1.617,-10.048c-3.065,5.535 -8.088,10.985 -16.432,10.985c-8.599,-0 -12.942,-5.705 -12.942,-13.624c0,-19.158 17.114,-30.993 33.377,-30.993c4.938,0 11.324,0.852 14.304,1.959l-5.875,26.565Z" style="fill:#231f20;fill-rule:nonzero;"/><path d="M462.776,77.425l-5.961,28.268l-11.75,-0l5.365,-25.714c0.34,-1.533 0.681,-2.98 0.681,-4.427c-0,-3.236 -1.533,-5.535 -5.62,-5.535c-6.386,-0 -9.451,5.705 -10.643,11.239l-5.194,24.437l-11.835,-0l6.982,-33.207c0.681,-3.15 1.277,-6.3 1.618,-9.536l11.068,-0l-1.277,7.578c4.087,-5.705 8.344,-8.429 15.412,-8.429c6.897,-0 11.665,3.405 11.665,10.472c-0,1.533 -0.171,3.151 -0.511,4.854" style="fill:#231f20;fill-rule:nonzero;"/><path d="M493.6,82.363l13.453,23.33l-13.453,-0l-11.58,-22.393l-4.598,22.393l-11.835,-0l12.942,-61.39l11.751,-0l-7.578,36.272l18.305,-17.626l13.879,0l-21.286,19.414Z" style="fill:#231f20;fill-rule:nonzero;"/></g></svg>