<svg xmlns="http://www.w3.org/2000/svg" viewBox="0 0 493.28 125.65"><defs><style>.cls-1{fill:#010101;}.cls-2{fill:#dde460;}.cls-3{fill:#a7dcda;}.cls-4{fill:#f6df3f;}.cls-5{fill:#231f20;}</style></defs><title>Primário</title><g id="Layer_2" data-name="Layer 2"><g id="Layer_1-2" data-name="Layer 1"><circle class="cls-1" cx="62.56" cy="63.09" r="62.56" transform="translate(-19.38 28.74) rotate(-22.5)"/><circle class="cls-1" cx="62.56" cy="63.09" r="58.65" transform="translate(-19.66 96.75) rotate(-67.5)"/><circle class="cls-2" cx="62.57" cy="54.61" r="52.02"/><path class="cls-1" d="M62.56,108a54,54,0,1,1,54-54A54,54,0,0,1,62.56,108Zm0-104A50.07,50.07,0,1,0,112.63,54,50.12,50.12,0,0,0,62.56,3.91Z"/><circle class="cls-3" cx="53.85" cy="78.43" r="43.18"/><path class="cls-1" d="M53.94,123.58a45.65,45.65,0,0,1-9.55-1A45.14,45.14,0,1,1,98,87.89h0a45.17,45.17,0,0,1-44,35.69Zm-.1-86.38A41.23,41.23,0,1,0,94.16,87.07h0A41.24,41.24,0,0,0,53.84,37.2Z"/><circle class="cls-4" cx="91.57" cy="80.25" r="26.79"/><path class="cls-1" d="M91.57,109a28.75,28.75,0,1,1,28.75-28.75A28.78,28.78,0,0,1,91.57,109Zm0-53.58A24.84,24.84,0,1,0,116.4,80.25,24.86,24.86,0,0,0,91.57,55.42Z"/><path class="cls-5" d="M170.35,67H160.9l-3.84,18.25H146.27L156.76,36h20.32C185.35,36,191,41.78,191,48.43,191,61.66,180.47,67,170.35,67Zm1.33-23.78h-5.76l-3.54,16.54h3.69c7.24,0,13.89-1.62,13.89-10.26C180,45.55,175.89,43.19,171.68,43.19Z"/><path class="cls-5" d="M225.39,72.07a69.77,69.77,0,0,0-1.77,13.15H213.2c.15-1.84.82-5.32,1.41-8.72-2.66,4.81-7,9.54-14.26,9.54-7.46,0-11.23-5-11.23-11.83,0-16.62,14.85-26.89,29-26.89,4.29,0,9.83.74,12.41,1.7Zm-9.23-17.88c-8.5,0-16.25,9-16.25,18.92,0,3.32,1.18,6,5,6,5.17,0,10.12-7.09,12.19-15.95l2-8.57A8.27,8.27,0,0,0,216.16,54.19Z"/><path class="cls-5" d="M264.92,80.27C261.6,95.2,256.13,102,239.73,102a41,41,0,0,1-12.86-2.07l2-7.31a22.18,22.18,0,0,0,10.64,2.51c9.23,0,12.78-4.87,14.48-11.82l1.18-4.87c-3.55,4.72-7.24,6.79-13.37,6.79-7.61,0-11.31-4.73-11.31-11,0-16.69,15.22-26.81,29.41-26.81a46.75,46.75,0,0,1,12,1.62Zm-7.24-26c-8.5,0-16.4,8.72-16.4,19.06,0,3.32,1.18,5.76,4.8,5.76,6.95,0,10.79-8.86,12.34-15.44l2.14-8.94A9.92,9.92,0,0,0,257.68,54.27Z"/><path class="cls-5" d="M308.29,45a23.63,23.63,0,0,0-10.2-2.44c-4.5,0-11.23,2.07-11.23,7.17,0,7.16,19.51,6.06,19.51,19.65,0,10.78-10.2,16.7-22.68,16.7a44.53,44.53,0,0,1-14.41-2.15l2.59-8A25,25,0,0,0,284,78.65c5.25-.08,11.08-2.44,11.08-7.91,0-7.75-19.35-6.94-19.35-19.43,0-11.74,11.74-16.1,23-16.1a34,34,0,0,1,12.12,2.21Z"/><path class="cls-5" d="M320,69.56a10.93,10.93,0,0,0-.52,3.47c0,5,3.84,7,8.35,7a22,22,0,0,0,11.37-3.4l-.36,6.57A31.81,31.81,0,0,1,324.76,86c-8.05,0-15.66-3.48-15.66-12.56,0-14.71,11.16-26.08,24.31-26.08,6,0,12.78,2.14,12.78,8.94C346.19,68,329.27,69.56,320,69.56Zm12.48-16.18c-5.61,0-9.68,5.84-11.52,10.64,6.65,0,15.95-1.18,15.95-7C337,54.27,335,53.38,332.52,53.38Z"/><path class="cls-5" d="M380.25,80.27C376.92,95.2,371.46,102,355.05,102a41,41,0,0,1-12.85-2.07l2-7.31a22.23,22.23,0,0,0,10.64,2.51c9.24,0,12.78-4.87,14.48-11.82l1.19-4.87c-3.55,4.72-7.24,6.79-13.38,6.79-7.61,0-11.3-4.73-11.3-11,0-16.69,15.22-26.81,29.4-26.81a46.68,46.68,0,0,1,12,1.62Zm-7.24-26c-8.5,0-16.4,8.72-16.4,19.06,0,3.32,1.18,5.76,4.8,5.76,6.94,0,10.78-8.86,12.34-15.44l2.14-8.94A9.92,9.92,0,0,0,373,54.27Z"/><path class="cls-5" d="M421.18,76.87a84.13,84.13,0,0,0-1.41,8.35h-9.53l1-6.65C408.1,82.93,404.19,86,398.05,86c-6,0-10.19-3-10.19-9.17a20.45,20.45,0,0,1,.37-4.21l5.24-24.6h10.2L399,70.45a18.27,18.27,0,0,0-.59,3.84c0,2.81,1.33,4.87,4.88,4.87,5.54,0,8.12-5.09,9.16-9.82L417,48.06h10.19Z"/><path class="cls-5" d="M454.5,57a8.44,8.44,0,0,0-3-.52c-6.73,0-10.49,6.51-11.75,12.42l-3.47,16.32H426l6.13-28.81a81.15,81.15,0,0,0,1.48-8.2h9.6l-1.4,7.61c2.29-4.58,6.8-8.5,12.12-8.5a10,10,0,0,1,2.95.37Z"/><path class="cls-5" d="M469.42,86c-8.2,0-15.74-4.51-15.74-13.45,0-14.33,9.24-25.19,23.94-25.19,8.2,0,15.66,4.36,15.66,13.37C493.28,75,483.9,86,469.42,86Zm6.43-31.77c-7.61,0-11.45,10.78-11.45,17.21,0,4.43,1.7,7.68,6.5,7.68,7.46,0,11.75-10.86,11.75-17.21C482.65,57.52,480.65,54.27,475.85,54.27Z"/></g></g></svg>