<?xml version="1.0" encoding="UTF-8" standalone="no"?><!DOCTYPE svg PUBLIC "-//W3C//DTD SVG 1.1//EN" "http://www.w3.org/Graphics/SVG/1.1/DTD/svg11.dtd"><svg width="100%" height="100%" viewBox="0 0 126 126" version="1.1" xmlns="http://www.w3.org/2000/svg" xmlns:xlink="http://www.w3.org/1999/xlink" xml:space="preserve" xmlns:serif="http://www.serif.com/" style="fill-rule:evenodd;clip-rule:evenodd;stroke-linejoin:round;stroke-miterlimit:2;"><g id="Layer_2"><g id="Layer_1-2"><path d="M38.621,5.289c31.899,-13.213 68.525,1.958 81.738,33.857c13.214,31.9 -1.957,68.526 -33.857,81.739c-31.899,13.213 -68.525,-1.958 -81.739,-33.857c-13.213,-31.9 1.958,-68.526 33.858,-81.739Z" style="fill:#010101;"/><path d="M8.383,40.651c12.387,-29.906 46.724,-44.128 76.63,-31.741c29.905,12.387 44.128,46.724 31.741,76.63c-12.388,29.906 -46.724,44.129 -76.63,31.741c-29.906,-12.387 -44.129,-46.724 -31.741,-76.63Z" style="fill:#010101;"/><circle cx="62.57" cy="54.61" r="52.02" style="fill:#dde460;"/><path d="M62.56,108c-29.624,0 -54,-24.376 -54,-54c-0,-29.624 24.376,-54 54,-54c29.624,-0 54,24.376 54,54c0,29.624 -24.376,54 -54,54Zm0,-104c-27.468,0 -50.07,22.602 -50.07,50.07c0,27.468 22.602,50.07 50.07,50.07c27.468,-0 50.07,-22.602 50.07,-50.07c0,-0.023 0,-0.047 0,-0.07c-0.016,-27.465 -22.605,-50.063 -50.07,-50.09l0,0.09Z" style="fill:#010101;fill-rule:nonzero;"/><circle cx="53.85" cy="78.43" r="43.18" style="fill:#a7dcda;"/><path d="M53.94,123.58c-3.21,0.003 -6.411,-0.332 -9.55,-1c-20.731,-4.448 -35.671,-22.932 -35.671,-44.136c0,-24.763 20.377,-45.14 45.14,-45.14c24.763,0 45.14,20.377 45.14,45.14c0,3.175 -0.335,6.341 -0.999,9.446c-4.44,20.684 -22.845,35.613 -44,35.69l-0.06,0Zm-0.1,-86.38c-22.616,0.003 -41.225,18.614 -41.225,41.23c0,22.618 18.612,41.23 41.23,41.23c19.37,-0 36.256,-13.65 40.315,-32.59c0.607,-2.837 0.913,-5.729 0.913,-8.63c0,-22.621 -18.612,-41.236 -41.233,-41.24Z" style="fill:#010101;fill-rule:nonzero;"/><circle cx="91.57" cy="80.25" r="26.79" style="fill:#f6df3f;"/><path d="M91.57,109c-15.772,0 -28.75,-12.978 -28.75,-28.75c-0,-15.772 12.978,-28.75 28.75,-28.75c15.772,0 28.75,12.978 28.75,28.75c-0.016,15.766 -12.984,28.734 -28.75,28.75Zm-0,-53.58c-0.003,-0 -0.007,-0 -0.01,-0c-13.627,-0 -24.84,11.213 -24.84,24.84c0,13.627 11.213,24.84 24.84,24.84c13.627,-0 24.84,-11.213 24.84,-24.84c0,-0.003 0,-0.007 0,-0.01c-0.016,-13.615 -11.215,-24.814 -24.83,-24.83Z" style="fill:#010101;fill-rule:nonzero;"/></g></g></svg>