<svg xmlns="http://www.w3.org/2000/svg" xmlns:xlink="http://www.w3.org/1999/xlink" viewBox="0,0,256,256" width="50px" height="50px" fill-rule="nonzero"><g fill="#1a7f37" fill-rule="nonzero" stroke="none" stroke-width="1" stroke-linecap="butt" stroke-linejoin="miter" stroke-miterlimit="10" stroke-dasharray="" stroke-dashoffset="0" font-family="none" font-weight="none" font-size="none" text-anchor="none" style="mix-blend-mode: normal"><g transform="scale(5.12,5.12)"><path d="M25,0.03906c-2.16,0 -4.20047,0.84109 -5.73047,2.37109l-9.58984,9.58984h3.25c1.6,0 3.11023,0.61977 4.24023,1.75977l6.76953,6.76953c0.58,0.58 1.54109,0.58023 2.12109,-0.00977l6.76953,-6.75976c1.13,-1.14 2.64023,-1.75977 4.24023,-1.75977h3.25l-9.58984,-9.58984c-1.53,-1.53 -3.57047,-2.37109 -5.73047,-2.37109zM7.67969,14l-5.26953,5.26953c-3.16,3.16 -3.16,8.30094 0,11.46094l5.26953,5.26953h5.25c1.07,0 2.07008,-0.41992 2.83008,-1.16992l6.76953,-6.76953c1.36,-1.36 3.58141,-1.36 4.94141,0l6.76953,6.76953c0.76,0.75 1.76008,1.16992 2.83008,1.16992h5.25l5.26953,-5.26953c3.16,-3.16 3.16,-8.30094 0,-11.46094l-5.26953,-5.26953h-5.25c-1.07,0 -2.07008,0.41992 -2.83008,1.16992l-6.76953,6.76953c-0.68,0.68 -1.5707,1.02148 -2.4707,1.02148c-0.9,0 -1.7907,-0.34148 -2.4707,-1.02148l-6.76953,-6.76953c-0.76,-0.75 -1.76008,-1.16992 -2.83008,-1.16992zM25,29.03711c-0.385,0.00125 -0.77055,0.14836 -1.06055,0.44336l-6.76953,6.75977c-1.13,1.14 -2.64024,1.75977 -4.24023,1.75977h-3.25l9.58984,9.58984c1.53,1.53 3.57047,2.37109 5.73047,2.37109c2.16,0 4.20047,-0.84109 5.73047,-2.37109l9.58984,-9.58984h-3.25c-1.6,0 -3.11023,-0.61977 -4.24023,-1.75977l-6.76953,-6.76953c-0.29,-0.29 -0.67555,-0.43484 -1.06055,-0.43359z"></path></g></g></svg>