<svg xmlns="http://www.w3.org/2000/svg" xmlns:xlink="http://www.w3.org/1999/xlink" width="500" zoomAndPan="magnify" viewBox="0 0 375 374.999991" height="500" preserveAspectRatio="xMidYMid meet" version="1.0"><defs><g/><clipPath id="368b4062a3"><path d="M 0 0 L 375 0 L 375 155 L 0 155 Z M 0 0 " clip-rule="nonzero"/></clipPath><clipPath id="95f3598351"><path d="M -131.730469 -60.839844 L 377.902344 -161.476562 L 420.34375 53.453125 L -89.289062 154.089844 Z M -131.730469 -60.839844 " clip-rule="nonzero"/></clipPath><clipPath id="9ad923b0a7"><path d="M -131.730469 -60.839844 L 377.902344 -161.476562 L 420.34375 53.453125 L -89.289062 154.089844 Z M -131.730469 -60.839844 " clip-rule="nonzero"/></clipPath><clipPath id="4e9949dad2"><path d="M 17 127.175781 L 113 127.175781 L 113 222.425781 L 17 222.425781 Z M 17 127.175781 " clip-rule="nonzero"/></clipPath><clipPath id="5e786a12a5"><path d="M 24 127.175781 L 107 127.175781 L 107 210 L 24 210 Z M 24 127.175781 " clip-rule="nonzero"/></clipPath><clipPath id="c2e7ced591"><path d="M 0.140625 339.140625 L 375 339.140625 L 375 375 L 0.140625 375 Z M 0.140625 339.140625 " clip-rule="nonzero"/></clipPath><clipPath id="775370d925"><path d="M 337 222 L 375 222 L 375 375 L 337 375 Z M 337 222 " clip-rule="nonzero"/></clipPath><clipPath id="3c8abb75be"><path d="M 465.652344 464.839844 L 337.5 336.6875 L 451.488281 222.703125 L 579.640625 350.855469 Z M 465.652344 464.839844 " clip-rule="nonzero"/></clipPath><clipPath id="5b54f651a1"><path d="M 465.652344 464.839844 L 337.5 336.6875 L 451.488281 222.703125 L 579.640625 350.855469 Z M 465.652344 464.839844 " clip-rule="nonzero"/></clipPath><clipPath id="cf18fe7bb6"><path d="M 244.125 255.472656 L 303.542969 255.472656 L 303.542969 307.1875 L 244.125 307.1875 Z M 244.125 255.472656 " clip-rule="nonzero"/></clipPath><clipPath id="e2f25464a9"><path d="M 157 249 L 218 249 L 218 307.730469 L 157 307.730469 Z M 157 249 " clip-rule="nonzero"/></clipPath><clipPath id="0a968d18ff"><path d="M 254.992188 0 L 375 0 L 375 132.421875 L 254.992188 132.421875 Z M 254.992188 0 " clip-rule="nonzero"/></clipPath><clipPath id="95cc450d05"><path d="M 375 0 L 375 132.421875 L 314.996094 111.730469 L 254.992188 132.421875 L 254.992188 0 L 375 0 " clip-rule="nonzero"/></clipPath></defs><rect x="-37.5" width="450" fill="#ffffff" y="-37.499999" height="449.999989" fill-opacity="1"/><rect x="-37.5" width="450" fill="#ffffff" y="-37.499999" height="449.999989" fill-opacity="1"/><rect x="-37.5" width="450" fill="#ffffff" y="-37.499999" height="449.999989" fill-opacity="1"/><g clip-path="url(#368b4062a3)"><g clip-path="url(#95f3598351)"><g clip-path="url(#9ad923b0a7)"><path fill="#262626" d="M -131.730469 -60.839844 L 377.902344 -161.476562 L 420.34375 53.453125 L -89.289062 154.089844 Z M -131.730469 -60.839844 " fill-opacity="1" fill-rule="nonzero"/></g></g></g><g clip-path="url(#4e9949dad2)"><path fill="#030405" d="M 65.3125 222.578125 C 39.070312 222.578125 17.722656 201.292969 17.722656 175.128906 C 17.722656 148.964844 39.070312 127.679688 65.3125 127.679688 C 91.554688 127.679688 112.902344 148.964844 112.902344 175.128906 C 112.902344 201.292969 91.554688 222.578125 65.3125 222.578125 " fill-opacity="1" fill-rule="nonzero"/></g><path fill="#030405" d="M 65.3125 130.648438 C 40.710938 130.648438 20.699219 150.601562 20.699219 175.128906 C 20.699219 199.65625 40.710938 219.613281 65.3125 219.613281 C 89.910156 219.613281 109.925781 199.65625 109.925781 175.128906 C 109.925781 150.601562 89.910156 130.648438 65.3125 130.648438 " fill-opacity="1" fill-rule="nonzero"/><path fill="#dde460" d="M 104.882812 168.699219 C 104.882812 190.492188 87.167969 208.15625 65.3125 208.15625 C 43.457031 208.15625 25.742188 190.492188 25.742188 168.699219 C 25.742188 146.910156 43.457031 129.246094 65.3125 129.246094 C 87.167969 129.246094 104.882812 146.910156 104.882812 168.699219 " fill-opacity="1" fill-rule="nonzero"/><g clip-path="url(#5e786a12a5)"><path fill="#030405" d="M 65.3125 130.253906 C 44.3125 130.253906 27.226562 147.289062 27.226562 168.226562 C 27.226562 189.164062 44.3125 206.195312 65.3125 206.195312 C 86.3125 206.195312 103.394531 189.164062 103.394531 168.226562 C 103.394531 147.289062 86.3125 130.253906 65.3125 130.253906 M 65.3125 209.164062 C 42.671875 209.164062 24.253906 190.800781 24.253906 168.226562 C 24.253906 145.652344 42.671875 127.285156 65.3125 127.285156 C 87.953125 127.285156 106.371094 145.652344 106.371094 168.226562 C 106.371094 190.800781 87.953125 209.164062 65.3125 209.164062 " fill-opacity="1" fill-rule="nonzero"/></g><path fill="#a7dcda" d="M 90.800781 193.632812 C 86.996094 211.316406 69.539062 222.582031 51.800781 218.789062 C 34.0625 215 22.765625 197.59375 26.566406 179.90625 C 30.367188 162.222656 47.828125 150.957031 65.566406 154.75 C 83.300781 158.539062 94.601562 175.945312 90.800781 193.632812 " fill-opacity="1" fill-rule="nonzero"/><path fill="#030405" d="M 58.675781 155.5 C 44.214844 155.5 31.175781 165.558594 28.023438 180.21875 C 26.269531 188.382812 27.808594 196.742188 32.359375 203.753906 C 36.90625 210.765625 43.921875 215.589844 52.113281 217.339844 C 60.304688 219.089844 68.6875 217.554688 75.71875 213.019531 C 82.75 208.480469 87.589844 201.488281 89.34375 193.320312 C 92.96875 176.464844 82.160156 159.8125 65.253906 156.199219 C 63.050781 155.726562 60.847656 155.5 58.675781 155.5 M 58.753906 221.011719 C 56.339844 221.011719 53.90625 220.757812 51.488281 220.242188 C 42.523438 218.324219 34.839844 213.042969 29.859375 205.367188 C 24.875 197.6875 23.191406 188.539062 25.113281 179.597656 C 29.078125 161.140625 47.367188 149.339844 65.878906 153.296875 C 84.390625 157.253906 96.222656 175.484375 92.253906 193.941406 C 90.332031 202.882812 85.035156 210.542969 77.335938 215.511719 C 71.710938 219.136719 65.296875 221.011719 58.753906 221.011719 " fill-opacity="1" fill-rule="nonzero"/><path fill="#f6df3e" d="M 107.753906 188.148438 C 107.753906 199.371094 98.628906 208.46875 87.375 208.46875 C 76.117188 208.46875 66.992188 199.371094 66.992188 188.148438 C 66.992188 176.929688 76.117188 167.832031 87.375 167.832031 C 98.628906 167.832031 107.753906 176.929688 107.753906 188.148438 " fill-opacity="1" fill-rule="nonzero"/><path fill="#030405" d="M 87.375 169.316406 C 76.957031 169.316406 68.480469 177.765625 68.480469 188.152344 C 68.480469 198.535156 76.957031 206.984375 87.375 206.984375 C 97.789062 206.984375 106.265625 198.535156 106.265625 188.152344 C 106.265625 177.765625 97.789062 169.316406 87.375 169.316406 M 87.375 209.953125 C 75.316406 209.953125 65.503906 200.171875 65.503906 188.152344 C 65.503906 176.128906 75.316406 166.347656 87.375 166.347656 C 99.429688 166.347656 109.242188 176.128906 109.242188 188.152344 C 109.242188 200.171875 99.429688 209.953125 87.375 209.953125 " fill-opacity="1" fill-rule="nonzero"/><path fill="#231f20" d="M 148.308594 159.777344 L 143.925781 159.777344 L 141.230469 172.328125 L 144.039062 172.328125 C 149.546875 172.328125 154.601562 171.09375 154.601562 164.539062 C 154.601562 161.570312 151.511719 159.777344 148.308594 159.777344 M 147.296875 177.816406 L 140.105469 177.816406 L 137.183594 191.65625 L 128.980469 191.65625 L 136.960938 154.289062 L 152.410156 154.289062 C 158.703125 154.289062 162.972656 158.714844 162.972656 163.757812 C 162.972656 173.785156 154.996094 177.816406 147.296875 177.816406 " fill-opacity="1" fill-rule="nonzero"/><path fill="#231f20" d="M 183.257812 168.125 C 176.796875 168.125 170.898438 174.960938 170.898438 182.46875 C 170.898438 184.988281 171.796875 187.0625 174.71875 187.0625 C 178.652344 187.0625 182.417969 181.683594 183.988281 174.960938 L 185.507812 168.460938 C 184.777344 168.183594 183.988281 168.125 183.257812 168.125 M 190.28125 181.683594 C 189.269531 186.222656 188.988281 189.527344 188.933594 191.65625 L 181.011719 191.65625 C 181.125 190.253906 181.628906 187.621094 182.078125 185.042969 C 180.054688 188.6875 176.742188 192.273438 171.234375 192.273438 C 165.558594 192.273438 162.695312 188.519531 162.695312 183.308594 C 162.695312 170.703125 173.988281 162.917969 184.71875 162.917969 C 187.980469 162.917969 192.191406 163.476562 194.160156 164.203125 Z M 190.28125 181.683594 " fill-opacity="1" fill-rule="nonzero"/><path fill="#231f20" d="M 215.960938 168.183594 C 209.5 168.183594 203.488281 174.792969 203.488281 182.636719 C 203.488281 185.15625 204.386719 187.003906 207.140625 187.003906 C 212.421875 187.003906 215.34375 180.28125 216.523438 175.296875 L 218.152344 168.519531 C 217.421875 168.292969 216.691406 168.183594 215.960938 168.183594 M 221.46875 187.902344 C 218.9375 199.21875 214.78125 204.371094 202.308594 204.371094 C 198.542969 204.371094 194.945312 203.644531 192.53125 202.804688 L 194.046875 197.257812 C 196.746094 198.714844 199.609375 199.164062 202.140625 199.164062 C 209.164062 199.164062 211.859375 195.464844 213.152344 190.199219 L 214.050781 186.5 C 211.355469 190.085938 208.542969 191.65625 203.878906 191.65625 C 198.09375 191.65625 195.285156 188.070312 195.285156 183.308594 C 195.285156 170.648438 206.859375 162.972656 217.648438 162.972656 C 220.738281 162.972656 224.613281 163.53125 226.75 164.203125 Z M 221.46875 187.902344 " fill-opacity="1" fill-rule="nonzero"/><path fill="#231f20" d="M 246.582031 159.273438 L 241.921875 159.273438 L 239.671875 169.976562 L 243.660156 169.976562 C 248.042969 169.976562 252.316406 168.292969 252.316406 163.308594 C 252.316406 160.171875 249.167969 159.273438 246.582031 159.273438 M 242.199219 174.90625 L 238.660156 174.90625 L 236.132812 186.667969 L 240.007812 186.667969 C 244.730469 186.667969 249.617188 185.210938 249.617188 179.441406 C 249.617188 175.519531 245.234375 174.90625 242.199219 174.90625 M 251.414062 172.328125 C 255.460938 173.222656 258.046875 175.800781 258.046875 179.722656 C 258.046875 189.359375 248.832031 191.65625 241.078125 191.65625 L 227.199219 191.65625 L 235.175781 154.289062 L 250.179688 154.289062 C 255.179688 154.289062 260.574219 156.585938 260.574219 162.132812 C 260.574219 167.621094 256.867188 171.320312 251.414062 172.328125 " fill-opacity="1" fill-rule="nonzero"/><path fill="#231f20" d="M 281.984375 168.125 C 275.519531 168.125 269.621094 174.960938 269.621094 182.46875 C 269.621094 184.988281 270.519531 187.0625 273.441406 187.0625 C 277.375 187.0625 281.140625 181.683594 282.714844 174.960938 L 284.230469 168.460938 C 283.5 168.183594 282.714844 168.125 281.984375 168.125 M 289.007812 181.683594 C 287.996094 186.222656 287.714844 189.527344 287.65625 191.65625 L 279.734375 191.65625 C 279.847656 190.253906 280.351562 187.621094 280.800781 185.042969 C 278.78125 188.6875 275.464844 192.273438 269.957031 192.273438 C 264.285156 192.273438 261.417969 188.519531 261.417969 183.308594 C 261.417969 170.703125 272.710938 162.917969 283.445312 162.917969 C 286.703125 162.917969 290.917969 163.476562 292.882812 164.203125 Z M 289.007812 181.683594 " fill-opacity="1" fill-rule="nonzero"/><path fill="#231f20" d="M 322.832031 173.054688 L 318.898438 191.65625 L 311.144531 191.65625 L 314.683594 174.738281 C 314.910156 173.726562 315.132812 172.777344 315.132812 171.824219 C 315.132812 169.695312 314.121094 168.183594 311.425781 168.183594 C 307.210938 168.183594 305.1875 171.9375 304.402344 175.578125 L 300.972656 191.65625 L 293.164062 191.65625 L 297.773438 169.804688 C 298.222656 167.734375 298.613281 165.660156 298.839844 163.53125 L 306.144531 163.53125 L 305.300781 168.519531 C 308 164.765625 310.808594 162.972656 315.472656 162.972656 C 320.023438 162.972656 323.167969 165.214844 323.167969 169.863281 C 323.167969 170.871094 323.054688 171.9375 322.832031 173.054688 " fill-opacity="1" fill-rule="nonzero"/><path fill="#231f20" d="M 343.171875 176.304688 L 352.050781 191.65625 L 343.171875 191.65625 L 335.53125 176.921875 L 332.496094 191.65625 L 324.6875 191.65625 L 333.226562 151.265625 L 340.980469 151.265625 L 335.980469 175.128906 L 348.058594 163.53125 L 357.21875 163.53125 Z M 343.171875 176.304688 " fill-opacity="1" fill-rule="nonzero"/><g fill="#201f1f" fill-opacity="1"><g transform="translate(191.472224, 226.383208)"><g><path d="M 8.53125 -13.734375 C 6.875 -13.734375 5.566406 -13.179688 4.609375 -12.078125 C 3.648438 -10.972656 3.171875 -9.460938 3.171875 -7.546875 C 3.171875 -5.566406 3.632812 -4.039062 4.5625 -2.96875 C 5.488281 -1.894531 6.804688 -1.359375 8.515625 -1.359375 C 9.566406 -1.359375 10.769531 -1.546875 12.125 -1.921875 L 12.125 -0.375 C 11.070312 0.0078125 9.78125 0.203125 8.25 0.203125 C 6.019531 0.203125 4.300781 -0.46875 3.09375 -1.8125 C 1.894531 -3.164062 1.296875 -5.082031 1.296875 -7.5625 C 1.296875 -9.125 1.582031 -10.488281 2.15625 -11.65625 C 2.738281 -12.820312 3.578125 -13.722656 4.671875 -14.359375 C 5.773438 -14.992188 7.070312 -15.3125 8.5625 -15.3125 C 10.144531 -15.3125 11.523438 -15.019531 12.703125 -14.4375 L 11.96875 -12.9375 C 10.820312 -13.46875 9.675781 -13.734375 8.53125 -13.734375 Z M 8.53125 -13.734375 "/></g></g></g><g fill="#201f1f" fill-opacity="1"><g transform="translate(215.299049, 226.383208)"><g><path d="M 15.171875 -7.5625 C 15.171875 -5.144531 14.5625 -3.242188 13.34375 -1.859375 C 12.125 -0.484375 10.425781 0.203125 8.25 0.203125 C 6.019531 0.203125 4.300781 -0.472656 3.09375 -1.828125 C 1.894531 -3.191406 1.296875 -5.113281 1.296875 -7.59375 C 1.296875 -10.039062 1.898438 -11.941406 3.109375 -13.296875 C 4.316406 -14.648438 6.035156 -15.328125 8.265625 -15.328125 C 10.429688 -15.328125 12.125 -14.640625 13.34375 -13.265625 C 14.5625 -11.890625 15.171875 -9.988281 15.171875 -7.5625 Z M 3.140625 -7.5625 C 3.140625 -5.519531 3.578125 -3.96875 4.453125 -2.90625 C 5.328125 -1.851562 6.59375 -1.328125 8.25 -1.328125 C 9.914062 -1.328125 11.175781 -1.851562 12.03125 -2.90625 C 12.882812 -3.957031 13.3125 -5.507812 13.3125 -7.5625 C 13.3125 -9.59375 12.882812 -11.132812 12.03125 -12.1875 C 11.1875 -13.238281 9.929688 -13.765625 8.265625 -13.765625 C 6.597656 -13.765625 5.328125 -13.234375 4.453125 -12.171875 C 3.578125 -11.117188 3.140625 -9.582031 3.140625 -7.5625 Z M 3.140625 -7.5625 "/></g></g></g><g fill="#201f1f" fill-opacity="1"><g transform="translate(242.253615, 226.383208)"><g><path d="M 13.859375 0 L 11.859375 0 L 3.609375 -12.671875 L 3.53125 -12.671875 C 3.644531 -11.179688 3.703125 -9.816406 3.703125 -8.578125 L 3.703125 0 L 2.078125 0 L 2.078125 -15.09375 L 4.0625 -15.09375 L 12.28125 -2.484375 L 12.359375 -2.484375 C 12.347656 -2.660156 12.316406 -3.253906 12.265625 -4.265625 C 12.222656 -5.273438 12.207031 -6 12.21875 -6.4375 L 12.21875 -15.09375 L 13.859375 -15.09375 Z M 13.859375 0 "/></g></g></g><g fill="#201f1f" fill-opacity="1"><g transform="translate(268.681729, 226.383208)"><g><path d="M 13.859375 0 L 11.859375 0 L 3.609375 -12.671875 L 3.53125 -12.671875 C 3.644531 -11.179688 3.703125 -9.816406 3.703125 -8.578125 L 3.703125 0 L 2.078125 0 L 2.078125 -15.09375 L 4.0625 -15.09375 L 12.28125 -2.484375 L 12.359375 -2.484375 C 12.347656 -2.660156 12.316406 -3.253906 12.265625 -4.265625 C 12.222656 -5.273438 12.207031 -6 12.21875 -6.4375 L 12.21875 -15.09375 L 13.859375 -15.09375 Z M 13.859375 0 "/></g></g></g><g fill="#201f1f" fill-opacity="1"><g transform="translate(295.109843, 226.383208)"><g><path d="M 10.484375 0 L 2.078125 0 L 2.078125 -15.09375 L 10.484375 -15.09375 L 10.484375 -13.53125 L 3.828125 -13.53125 L 3.828125 -8.671875 L 10.078125 -8.671875 L 10.078125 -7.125 L 3.828125 -7.125 L 3.828125 -1.5625 L 10.484375 -1.5625 Z M 10.484375 0 "/></g></g></g><g fill="#201f1f" fill-opacity="1"><g transform="translate(317.357317, 226.383208)"><g><path d="M 8.53125 -13.734375 C 6.875 -13.734375 5.566406 -13.179688 4.609375 -12.078125 C 3.648438 -10.972656 3.171875 -9.460938 3.171875 -7.546875 C 3.171875 -5.566406 3.632812 -4.039062 4.5625 -2.96875 C 5.488281 -1.894531 6.804688 -1.359375 8.515625 -1.359375 C 9.566406 -1.359375 10.769531 -1.546875 12.125 -1.921875 L 12.125 -0.375 C 11.070312 0.0078125 9.78125 0.203125 8.25 0.203125 C 6.019531 0.203125 4.300781 -0.46875 3.09375 -1.8125 C 1.894531 -3.164062 1.296875 -5.082031 1.296875 -7.5625 C 1.296875 -9.125 1.582031 -10.488281 2.15625 -11.65625 C 2.738281 -12.820312 3.578125 -13.722656 4.671875 -14.359375 C 5.773438 -14.992188 7.070312 -15.3125 8.5625 -15.3125 C 10.144531 -15.3125 11.523438 -15.019531 12.703125 -14.4375 L 11.96875 -12.9375 C 10.820312 -13.46875 9.675781 -13.734375 8.53125 -13.734375 Z M 8.53125 -13.734375 "/></g></g></g><g fill="#201f1f" fill-opacity="1"><g transform="translate(341.184143, 226.383208)"><g><path d="M 6.71875 0 L 4.96875 0 L 4.96875 -13.53125 L 0.1875 -13.53125 L 0.1875 -15.09375 L 11.5 -15.09375 L 11.5 -13.53125 L 6.71875 -13.53125 Z M 6.71875 0 "/></g></g></g><g clip-path="url(#c2e7ced591)"><path fill="#000000" d="M 0.140625 339.140625 L 452.449219 339.140625 L 452.449219 375 L 0.140625 375 Z M 0.140625 339.140625 " fill-opacity="1" fill-rule="nonzero"/></g><g clip-path="url(#775370d925)"><g clip-path="url(#3c8abb75be)"><g clip-path="url(#5b54f651a1)"><path fill="#ffffff" d="M 465.652344 464.839844 L 337.5 336.6875 L 451.488281 222.703125 L 579.640625 350.855469 Z M 465.652344 464.839844 " fill-opacity="1" fill-rule="nonzero"/></g></g></g><path fill="#545454" d="M 110.65625 267.554688 L 103.898438 274.3125 C 103.15625 275.054688 102.183594 275.421875 101.210938 275.421875 C 100.234375 275.421875 99.261719 275.054688 98.519531 274.3125 L 91.761719 267.554688 C 90.230469 266.023438 88.199219 265.183594 86.035156 265.183594 L 81.242188 265.183594 L 75.21875 271.207031 C 71.453125 274.972656 71.453125 281.078125 75.21875 284.84375 L 81.242188 290.867188 L 86.035156 290.867188 C 88.199219 290.867188 90.230469 290.027344 91.761719 288.496094 L 98.519531 281.738281 C 100.003906 280.253906 102.414062 280.253906 103.898438 281.738281 L 110.65625 288.496094 C 112.1875 290.027344 114.21875 290.867188 116.382812 290.867188 L 121.082031 290.867188 L 127.105469 284.84375 C 130.875 281.078125 130.875 274.972656 127.105469 271.207031 L 121.082031 265.183594 L 116.382812 265.183594 C 114.21875 265.183594 112.1875 266.023438 110.65625 267.554688 Z M 110.65625 267.554688 " fill-opacity="1" fill-rule="nonzero"/><path fill="#545454" d="M 86.035156 263.492188 C 88.652344 263.492188 91.109375 264.507812 92.957031 266.355469 L 99.714844 273.117188 C 100.539062 273.9375 101.878906 273.9375 102.703125 273.117188 L 109.460938 266.355469 C 111.308594 264.507812 113.765625 263.492188 116.382812 263.492188 L 119.390625 263.492188 L 107.980469 252.078125 C 104.214844 248.3125 98.109375 248.3125 94.34375 252.078125 L 82.933594 263.492188 Z M 86.035156 263.492188 " fill-opacity="1" fill-rule="nonzero"/><path fill="#545454" d="M 116.382812 292.558594 C 113.765625 292.558594 111.308594 291.542969 109.460938 289.691406 L 102.703125 282.933594 C 101.878906 282.109375 100.539062 282.109375 99.714844 282.933594 L 92.957031 289.691406 C 91.109375 291.542969 88.652344 292.558594 86.035156 292.558594 L 82.933594 292.558594 L 94.34375 303.96875 C 98.109375 307.734375 104.214844 307.734375 107.980469 303.96875 L 119.390625 292.558594 Z M 116.382812 292.558594 " fill-opacity="1" fill-rule="nonzero"/><g clip-path="url(#cf18fe7bb6)"><path fill="#545454" d="M 244.140625 255.472656 L 248.484375 255.472656 L 248.484375 307.1875 L 244.140625 307.1875 Z M 300.632812 255.472656 L 303.527344 255.472656 L 303.527344 307.1875 L 300.632812 307.1875 Z M 251.382812 255.472656 L 255.730469 255.472656 L 255.730469 288.511719 L 251.382812 288.511719 Z M 258.625 255.472656 L 261.523438 255.472656 L 261.523438 288.511719 L 258.625 288.511719 Z M 264.417969 255.472656 L 267.316406 255.472656 L 267.316406 288.511719 L 264.417969 288.511719 Z M 271.664062 255.472656 L 276.007812 255.472656 L 276.007812 288.511719 L 271.664062 288.511719 Z M 280.351562 255.472656 L 283.25 255.472656 L 283.25 288.511719 L 280.351562 288.511719 Z M 286.148438 255.472656 L 289.042969 255.472656 L 289.042969 288.511719 L 286.148438 288.511719 Z M 291.941406 255.472656 L 297.734375 255.472656 L 297.734375 288.511719 L 291.941406 288.511719 Z M 251.398438 304.308594 L 251.398438 293.878906 L 254.378906 293.878906 C 255.476562 293.878906 256.308594 294.121094 256.878906 294.605469 C 257.449219 295.089844 257.734375 295.800781 257.734375 296.738281 C 257.734375 297.265625 257.617188 297.722656 257.382812 298.105469 C 257.144531 298.484375 256.824219 298.765625 256.414062 298.941406 C 256.882812 299.074219 257.25 299.34375 257.503906 299.746094 C 257.757812 300.152344 257.886719 300.648438 257.886719 301.238281 C 257.886719 302.25 257.605469 303.015625 257.046875 303.53125 C 256.484375 304.046875 255.671875 304.300781 254.609375 304.300781 L 251.398438 304.300781 Z M 253.511719 298.242188 L 254.355469 298.242188 C 255.191406 298.242188 255.605469 297.8125 255.605469 296.960938 C 255.605469 296.488281 255.511719 296.148438 255.320312 295.941406 C 255.125 295.734375 254.8125 295.632812 254.378906 295.632812 L 253.511719 295.632812 Z M 253.511719 299.773438 L 253.511719 302.558594 L 254.609375 302.558594 C 254.988281 302.558594 255.277344 302.445312 255.476562 302.210938 C 255.671875 301.976562 255.769531 301.644531 255.769531 301.214844 C 255.769531 300.277344 255.429688 299.796875 254.746094 299.773438 Z M 266.019531 299.984375 C 266.019531 301.347656 265.695312 302.40625 265.042969 303.160156 C 264.394531 303.917969 263.492188 304.292969 262.335938 304.292969 C 261.183594 304.292969 260.28125 303.921875 259.625 303.171875 C 258.96875 302.425781 258.632812 301.378906 258.625 300.035156 L 258.625 298.296875 C 258.625 296.898438 258.949219 295.808594 259.601562 295.023438 C 260.253906 294.238281 261.160156 293.847656 262.320312 293.847656 C 263.460938 293.847656 264.363281 294.230469 265.019531 295.003906 C 265.675781 295.773438 266.007812 296.855469 266.015625 298.246094 Z M 263.941406 298.277344 C 263.941406 297.363281 263.8125 296.683594 263.550781 296.234375 C 263.285156 295.785156 262.878906 295.5625 262.324219 295.5625 C 261.773438 295.5625 261.371094 295.777344 261.105469 296.207031 C 260.84375 296.636719 260.707031 297.292969 260.695312 298.175781 L 260.695312 299.984375 C 260.695312 300.871094 260.832031 301.527344 261.097656 301.949219 C 261.367188 302.367188 261.777344 302.582031 262.339844 302.582031 C 262.878906 302.582031 263.28125 302.375 263.542969 301.960938 C 263.804688 301.550781 263.941406 300.910156 263.945312 300.042969 Z M 297.734375 300.011719 C 297.734375 301.375 297.410156 302.433594 296.757812 303.1875 C 296.109375 303.945312 295.207031 304.320312 294.050781 304.320312 C 292.898438 304.320312 291.996094 303.949219 291.339844 303.199219 C 290.683594 302.453125 290.347656 301.40625 290.339844 300.0625 L 290.339844 298.324219 C 290.339844 296.925781 290.664062 295.835938 291.316406 295.050781 C 291.96875 294.265625 292.875 293.875 294.035156 293.875 C 295.175781 293.875 296.078125 294.257812 296.734375 295.03125 C 297.390625 295.800781 297.722656 296.882812 297.730469 298.273438 Z M 295.65625 298.308594 C 295.65625 297.394531 295.527344 296.710938 295.265625 296.261719 C 295 295.816406 294.59375 295.59375 294.039062 295.59375 C 293.488281 295.59375 293.082031 295.808594 292.820312 296.238281 C 292.558594 296.667969 292.421875 297.324219 292.410156 298.203125 L 292.410156 300.011719 C 292.410156 300.902344 292.546875 301.554688 292.8125 301.976562 C 293.082031 302.398438 293.492188 302.609375 294.054688 302.609375 C 294.59375 302.609375 294.996094 302.40625 295.257812 301.988281 C 295.519531 301.578125 295.65625 300.9375 295.660156 300.074219 Z M 269.4375 302.5625 L 273.164062 302.5625 L 273.164062 304.308594 L 267.316406 304.308594 L 267.316406 293.886719 L 269.441406 293.886719 Z M 279.988281 299.800781 L 276.683594 299.800781 L 276.683594 302.5625 L 280.597656 302.5625 L 280.597656 304.308594 L 274.558594 304.308594 L 274.558594 293.886719 L 280.582031 293.886719 L 280.582031 295.640625 L 276.683594 295.640625 L 276.683594 298.101562 L 279.988281 298.101562 Z M 289.429688 295.644531 L 286.828125 295.644531 L 286.828125 304.3125 L 284.699219 304.3125 L 284.699219 295.644531 L 282.140625 295.644531 L 282.140625 293.886719 L 289.425781 293.886719 Z M 289.429688 295.644531 " fill-opacity="1" fill-rule="nonzero"/></g><g clip-path="url(#e2f25464a9)"><path fill="#545454" d="M 215.742188 275.566406 L 214.109375 277.976562 L 178.789062 254.269531 L 180.421875 251.855469 C 181.167969 250.746094 182.683594 250.453125 183.792969 251.199219 L 215.082031 272.203125 C 216.191406 272.949219 216.488281 274.457031 215.742188 275.566406 Z M 204.363281 292.40625 L 206.15625 279.648438 L 210.851562 282.800781 Z M 201.039062 303.46875 C 200.851562 304.789062 199.621094 305.71875 198.296875 305.53125 L 160.9375 300.316406 C 159.613281 300.128906 158.679688 298.898438 158.867188 297.578125 L 161.160156 281.261719 L 203.335938 287.15625 Z M 162.375 272.628906 C 162.5625 271.300781 163.792969 270.378906 165.121094 270.5625 L 202.476562 275.785156 C 203.804688 275.964844 204.734375 277.191406 204.546875 278.519531 L 204.140625 281.394531 L 161.96875 275.503906 Z M 175.535156 259.089844 L 196.542969 273.191406 L 168.640625 269.289062 Z M 216.058594 270.757812 L 184.777344 249.753906 C 182.863281 248.472656 180.257812 248.972656 178.96875 250.882812 L 166.707031 269.019531 L 165.363281 268.835938 C 163.082031 268.515625 160.960938 270.109375 160.640625 272.386719 L 157.136719 297.332031 C 156.8125 299.609375 158.414062 301.722656 160.695312 302.039062 L 198.050781 307.261719 C 200.332031 307.582031 202.453125 305.980469 202.773438 303.710938 L 203.808594 296.347656 L 217.191406 276.539062 C 218.480469 274.636719 217.96875 272.039062 216.058594 270.757812 " fill-opacity="1" fill-rule="nonzero"/></g><path fill="#545454" d="M 181.328125 288.625 L 199.339844 291.144531 L 199.539062 289.722656 L 181.527344 287.203125 L 181.328125 288.625 " fill-opacity="1" fill-rule="nonzero"/><path fill="#545454" d="M 180.898438 291.703125 L 198.910156 294.214844 L 199.105469 292.792969 L 181.097656 290.273438 L 180.898438 291.703125 " fill-opacity="1" fill-rule="nonzero"/><g fill="#ffffff" fill-opacity="1"><g transform="translate(8.736719, 368.787251)"><g><path d="M 16.640625 0 L 2.984375 0 L 2.984375 -23.71875 L 16.640625 -23.71875 L 16.640625 -19.59375 L 8.015625 -19.59375 L 8.015625 -14.390625 L 16.046875 -14.390625 L 16.046875 -10.265625 L 8.015625 -10.265625 L 8.015625 -4.15625 L 16.640625 -4.15625 Z M 16.640625 0 "/></g></g></g><g fill="#ffffff" fill-opacity="1"><g transform="translate(28.879251, 368.160265)"><g><path d="M 9.421875 -14.34375 C 8.054688 -14.34375 7 -13.828125 6.25 -12.796875 C 5.5 -11.773438 5.125 -10.347656 5.125 -8.515625 C 5.125 -4.691406 6.554688 -2.78125 9.421875 -2.78125 C 10.628906 -2.78125 12.085938 -3.082031 13.796875 -3.6875 L 13.796875 -0.640625 C 12.390625 -0.0546875 10.820312 0.234375 9.09375 0.234375 C 6.601562 0.234375 4.695312 -0.519531 3.375 -2.03125 C 2.050781 -3.539062 1.390625 -5.707031 1.390625 -8.53125 C 1.390625 -10.3125 1.710938 -11.867188 2.359375 -13.203125 C 3.015625 -14.546875 3.945312 -15.578125 5.15625 -16.296875 C 6.375 -17.015625 7.796875 -17.375 9.421875 -17.375 C 11.085938 -17.375 12.757812 -16.96875 14.4375 -16.15625 L 13.265625 -13.203125 C 12.628906 -13.515625 11.984375 -13.78125 11.328125 -14 C 10.679688 -14.226562 10.046875 -14.34375 9.421875 -14.34375 Z M 9.421875 -14.34375 "/></g></g></g><g fill="#ffffff" fill-opacity="1"><g transform="translate(45.556919, 368.160265)"><g><path d="M 17.703125 -8.578125 C 17.703125 -5.742188 17 -3.566406 15.59375 -2.046875 C 14.1875 -0.523438 12.171875 0.234375 9.546875 0.234375 C 6.921875 0.234375 4.90625 -0.523438 3.5 -2.046875 C 2.09375 -3.566406 1.390625 -5.753906 1.390625 -8.609375 C 1.390625 -11.453125 2.09375 -13.625 3.5 -15.125 C 4.914062 -16.632812 6.9375 -17.390625 9.5625 -17.390625 C 12.195312 -17.390625 14.210938 -16.628906 15.609375 -15.109375 C 17.003906 -13.597656 17.703125 -11.421875 17.703125 -8.578125 Z M 5.203125 -8.578125 C 5.203125 -6.671875 5.5625 -5.234375 6.28125 -4.265625 C 7.007812 -3.296875 8.097656 -2.8125 9.546875 -2.8125 C 12.441406 -2.8125 13.890625 -4.734375 13.890625 -8.578125 C 13.890625 -12.441406 12.445312 -14.375 9.5625 -14.375 C 8.125 -14.375 7.035156 -13.882812 6.296875 -12.90625 C 5.566406 -11.9375 5.203125 -10.492188 5.203125 -8.578125 Z M 5.203125 -8.578125 "/></g></g></g><g fill="#ffffff" fill-opacity="1"><g transform="translate(66.041409, 368.160265)"><g><path d="M 17.34375 0 L 12.734375 0 L 5.28125 -12.953125 L 5.171875 -12.953125 C 5.328125 -10.660156 5.40625 -9.03125 5.40625 -8.0625 L 5.40625 0 L 2.15625 0 L 2.15625 -17.125 L 6.734375 -17.125 L 14.171875 -4.296875 L 14.25 -4.296875 C 14.132812 -6.523438 14.078125 -8.097656 14.078125 -9.015625 L 14.078125 -17.125 L 17.34375 -17.125 Z M 17.34375 0 "/></g></g></g><g fill="#ffffff" fill-opacity="1"><g transform="translate(86.935876, 368.160265)"><g><path d="M 17.703125 -8.578125 C 17.703125 -5.742188 17 -3.566406 15.59375 -2.046875 C 14.1875 -0.523438 12.171875 0.234375 9.546875 0.234375 C 6.921875 0.234375 4.90625 -0.523438 3.5 -2.046875 C 2.09375 -3.566406 1.390625 -5.753906 1.390625 -8.609375 C 1.390625 -11.453125 2.09375 -13.625 3.5 -15.125 C 4.914062 -16.632812 6.9375 -17.390625 9.5625 -17.390625 C 12.195312 -17.390625 14.210938 -16.628906 15.609375 -15.109375 C 17.003906 -13.597656 17.703125 -11.421875 17.703125 -8.578125 Z M 5.203125 -8.578125 C 5.203125 -6.671875 5.5625 -5.234375 6.28125 -4.265625 C 7.007812 -3.296875 8.097656 -2.8125 9.546875 -2.8125 C 12.441406 -2.8125 13.890625 -4.734375 13.890625 -8.578125 C 13.890625 -12.441406 12.445312 -14.375 9.5625 -14.375 C 8.125 -14.375 7.035156 -13.882812 6.296875 -12.90625 C 5.566406 -11.9375 5.203125 -10.492188 5.203125 -8.578125 Z M 5.203125 -8.578125 "/></g></g></g><g fill="#ffffff" fill-opacity="1"><g transform="translate(107.420367, 368.160265)"><g><path d="M 9.40625 0 L 5.28125 -13.4375 L 5.171875 -13.4375 C 5.328125 -10.695312 5.40625 -8.875 5.40625 -7.96875 L 5.40625 0 L 2.15625 0 L 2.15625 -17.125 L 7.09375 -17.125 L 11.15625 -4.03125 L 11.21875 -4.03125 L 15.515625 -17.125 L 20.453125 -17.125 L 20.453125 0 L 17.078125 0 L 17.078125 -8.109375 C 17.078125 -8.484375 17.082031 -8.921875 17.09375 -9.421875 C 17.101562 -9.921875 17.15625 -11.25 17.25 -13.40625 L 17.140625 -13.40625 L 12.734375 0 Z M 9.40625 0 "/></g></g></g><g fill="#ffffff" fill-opacity="1"><g transform="translate(131.430579, 368.160265)"><g><path d="M 2.15625 0 L 2.15625 -17.125 L 5.78125 -17.125 L 5.78125 0 Z M 2.15625 0 "/></g></g></g><g fill="#ffffff" fill-opacity="1"><g transform="translate(140.76398, 368.160265)"><g><path d="M 13.3125 0 L 0.578125 0 L 0.578125 -2.359375 L 8.78125 -14.125 L 0.796875 -14.125 L 0.796875 -17.125 L 13.09375 -17.125 L 13.09375 -14.78125 L 4.890625 -3 L 13.3125 -3 Z M 13.3125 0 "/></g></g></g><g fill="#ffffff" fill-opacity="1"><g transform="translate(156.047752, 368.160265)"><g><path d="M 12.015625 0 L 2.15625 0 L 2.15625 -17.125 L 12.015625 -17.125 L 12.015625 -14.140625 L 5.78125 -14.140625 L 5.78125 -10.390625 L 11.578125 -10.390625 L 11.578125 -7.40625 L 5.78125 -7.40625 L 5.78125 -3 L 12.015625 -3 Z M 12.015625 0 "/></g></g></g><g fill="#ffffff" fill-opacity="1"><g transform="translate(170.874714, 368.160265)"><g/></g></g><g fill="#ffffff" fill-opacity="1"><g transform="translate(178.497969, 368.160265)"><g><path d="M 17.34375 0 L 12.734375 0 L 5.28125 -12.953125 L 5.171875 -12.953125 C 5.328125 -10.660156 5.40625 -9.03125 5.40625 -8.0625 L 5.40625 0 L 2.15625 0 L 2.15625 -17.125 L 6.734375 -17.125 L 14.171875 -4.296875 L 14.25 -4.296875 C 14.132812 -6.523438 14.078125 -8.097656 14.078125 -9.015625 L 14.078125 -17.125 L 17.34375 -17.125 Z M 17.34375 0 "/></g></g></g><g fill="#ffffff" fill-opacity="1"><g transform="translate(199.392436, 368.160265)"><g><path d="M 12.640625 0 L 11.390625 -4.078125 L 5.15625 -4.078125 L 3.90625 0 L 0 0 L 6.046875 -17.1875 L 10.484375 -17.1875 L 16.546875 0 Z M 10.53125 -7.125 C 9.382812 -10.8125 8.738281 -12.894531 8.59375 -13.375 C 8.445312 -13.863281 8.34375 -14.25 8.28125 -14.53125 C 8.019531 -13.53125 7.28125 -11.0625 6.0625 -7.125 Z M 10.53125 -7.125 "/></g></g></g><g fill="#ffffff" fill-opacity="1"><g transform="translate(217.335144, 368.160265)"><g><path d="M 12.265625 -4.75 C 12.265625 -3.207031 11.707031 -1.988281 10.59375 -1.09375 C 9.476562 -0.207031 7.929688 0.234375 5.953125 0.234375 C 4.117188 0.234375 2.5 -0.109375 1.09375 -0.796875 L 1.09375 -4.171875 C 2.25 -3.648438 3.226562 -3.285156 4.03125 -3.078125 C 4.832031 -2.867188 5.566406 -2.765625 6.234375 -2.765625 C 7.023438 -2.765625 7.632812 -2.914062 8.0625 -3.21875 C 8.488281 -3.519531 8.703125 -3.972656 8.703125 -4.578125 C 8.703125 -4.910156 8.609375 -5.207031 8.421875 -5.46875 C 8.234375 -5.738281 7.957031 -5.992188 7.59375 -6.234375 C 7.226562 -6.472656 6.488281 -6.859375 5.375 -7.390625 C 4.332031 -7.878906 3.546875 -8.347656 3.015625 -8.796875 C 2.492188 -9.253906 2.078125 -9.785156 1.765625 -10.390625 C 1.453125 -10.992188 1.296875 -11.695312 1.296875 -12.5 C 1.296875 -14.007812 1.804688 -15.195312 2.828125 -16.0625 C 3.859375 -16.9375 5.28125 -17.375 7.09375 -17.375 C 7.988281 -17.375 8.835938 -17.265625 9.640625 -17.046875 C 10.453125 -16.835938 11.296875 -16.539062 12.171875 -16.15625 L 11.015625 -13.34375 C 10.097656 -13.71875 9.335938 -13.976562 8.734375 -14.125 C 8.140625 -14.269531 7.554688 -14.34375 6.984375 -14.34375 C 6.296875 -14.34375 5.765625 -14.179688 5.390625 -13.859375 C 5.023438 -13.546875 4.84375 -13.128906 4.84375 -12.609375 C 4.84375 -12.285156 4.914062 -12.003906 5.0625 -11.765625 C 5.21875 -11.535156 5.457031 -11.304688 5.78125 -11.078125 C 6.101562 -10.859375 6.867188 -10.460938 8.078125 -9.890625 C 9.679688 -9.117188 10.78125 -8.347656 11.375 -7.578125 C 11.96875 -6.804688 12.265625 -5.863281 12.265625 -4.75 Z M 12.265625 -4.75 "/></g></g></g><g fill="#ffffff" fill-opacity="1"><g transform="translate(238.096952, 368.787251)"><g><path d="M 12.125 0 L 7.109375 0 L 7.109375 -19.53125 L 0.671875 -19.53125 L 0.671875 -23.71875 L 18.578125 -23.71875 L 18.578125 -19.53125 L 12.125 -19.53125 Z M 12.125 0 "/></g></g></g><g fill="#ffffff" fill-opacity="1"><g transform="translate(255.820857, 368.160265)"><g><path d="M 12.640625 0 L 11.390625 -4.078125 L 5.15625 -4.078125 L 3.90625 0 L 0 0 L 6.046875 -17.1875 L 10.484375 -17.1875 L 16.546875 0 Z M 10.53125 -7.125 C 9.382812 -10.8125 8.738281 -12.894531 8.59375 -13.375 C 8.445312 -13.863281 8.34375 -14.25 8.28125 -14.53125 C 8.019531 -13.53125 7.28125 -11.0625 6.0625 -7.125 Z M 10.53125 -7.125 "/></g></g></g><g fill="#ffffff" fill-opacity="1"><g transform="translate(273.763566, 368.160265)"><g><path d="M 16 0 L 11.859375 0 L 7.875 -6.46875 L 3.890625 0 L 0 0 L 5.6875 -8.828125 L 0.359375 -17.125 L 4.375 -17.125 L 8.0625 -10.96875 L 11.671875 -17.125 L 15.59375 -17.125 L 10.21875 -8.625 Z M 16 0 "/></g></g></g><g fill="#ffffff" fill-opacity="1"><g transform="translate(291.155737, 368.160265)"><g><path d="M 12.640625 0 L 11.390625 -4.078125 L 5.15625 -4.078125 L 3.90625 0 L 0 0 L 6.046875 -17.1875 L 10.484375 -17.1875 L 16.546875 0 Z M 10.53125 -7.125 C 9.382812 -10.8125 8.738281 -12.894531 8.59375 -13.375 C 8.445312 -13.863281 8.34375 -14.25 8.28125 -14.53125 C 8.019531 -13.53125 7.28125 -11.0625 6.0625 -7.125 Z M 10.53125 -7.125 "/></g></g></g><g fill="#ffffff" fill-opacity="1"><g transform="translate(309.098445, 368.160265)"><g><path d="M 12.265625 -4.75 C 12.265625 -3.207031 11.707031 -1.988281 10.59375 -1.09375 C 9.476562 -0.207031 7.929688 0.234375 5.953125 0.234375 C 4.117188 0.234375 2.5 -0.109375 1.09375 -0.796875 L 1.09375 -4.171875 C 2.25 -3.648438 3.226562 -3.285156 4.03125 -3.078125 C 4.832031 -2.867188 5.566406 -2.765625 6.234375 -2.765625 C 7.023438 -2.765625 7.632812 -2.914062 8.0625 -3.21875 C 8.488281 -3.519531 8.703125 -3.972656 8.703125 -4.578125 C 8.703125 -4.910156 8.609375 -5.207031 8.421875 -5.46875 C 8.234375 -5.738281 7.957031 -5.992188 7.59375 -6.234375 C 7.226562 -6.472656 6.488281 -6.859375 5.375 -7.390625 C 4.332031 -7.878906 3.546875 -8.347656 3.015625 -8.796875 C 2.492188 -9.253906 2.078125 -9.785156 1.765625 -10.390625 C 1.453125 -10.992188 1.296875 -11.695312 1.296875 -12.5 C 1.296875 -14.007812 1.804688 -15.195312 2.828125 -16.0625 C 3.859375 -16.9375 5.28125 -17.375 7.09375 -17.375 C 7.988281 -17.375 8.835938 -17.265625 9.640625 -17.046875 C 10.453125 -16.835938 11.296875 -16.539062 12.171875 -16.15625 L 11.015625 -13.34375 C 10.097656 -13.71875 9.335938 -13.976562 8.734375 -14.125 C 8.140625 -14.269531 7.554688 -14.34375 6.984375 -14.34375 C 6.296875 -14.34375 5.765625 -14.179688 5.390625 -13.859375 C 5.023438 -13.546875 4.84375 -13.128906 4.84375 -12.609375 C 4.84375 -12.285156 4.914062 -12.003906 5.0625 -11.765625 C 5.21875 -11.535156 5.457031 -11.304688 5.78125 -11.078125 C 6.101562 -10.859375 6.867188 -10.460938 8.078125 -9.890625 C 9.679688 -9.117188 10.78125 -8.347656 11.375 -7.578125 C 11.96875 -6.804688 12.265625 -5.863281 12.265625 -4.75 Z M 12.265625 -4.75 "/></g></g></g><g clip-path="url(#0a968d18ff)"><g clip-path="url(#95cc450d05)"><path fill="#dde460" d="M 254.992188 0 L 375 0 L 375 132.421875 L 254.992188 132.421875 Z M 254.992188 0 " fill-opacity="1" fill-rule="nonzero"/></g></g><g fill="#0f6608" fill-opacity="1"><g transform="translate(270.91595, 45.750736)"><g><path d="M 14.566406 -10.496094 L 14.566406 -12.871094 L 9.023438 -12.871094 L 9.023438 -10.496094 L 10.277344 -10.496094 L 10.277344 -6.113281 L 5.765625 -12.871094 L 0.480469 -12.871094 L 0.480469 -10.496094 L 1.546875 -10.496094 L 1.546875 -2.375 L 0.460938 -2.375 L 0.460938 0 L 6.113281 0 L 6.113281 -2.375 L 4.695312 -2.375 L 4.695312 -7.015625 L 9.390625 0 L 13.351562 0 L 13.351562 -10.496094 Z M 14.566406 -10.496094 "/></g></g></g><g fill="#0f6608" fill-opacity="1"><g transform="translate(290.198442, 45.750736)"><g><path d="M 6.867188 0.332031 C 11.03125 0.332031 13.351562 -2.210938 13.351562 -6.371094 C 13.351562 -10.515625 11.25 -13.222656 6.738281 -13.222656 C 2.929688 -13.222656 0.277344 -10.476562 0.277344 -6.5 C 0.277344 -1.898438 3.019531 0.332031 6.867188 0.332031 Z M 6.867188 -2.558594 C 5.691406 -2.558594 4.824219 -4.089844 4.824219 -6.5 C 4.824219 -8.785156 5.597656 -10.40625 6.722656 -10.386719 C 8.140625 -10.386719 8.746094 -8.601562 8.746094 -6.371094 C 8.746094 -4.089844 8.027344 -2.558594 6.867188 -2.558594 Z M 6.867188 -2.558594 "/></g></g></g><g fill="#0f6608" fill-opacity="1"><g transform="translate(308.081402, 45.750736)"><g><path d="M 7.734375 -4.125 C 7.699219 -4.640625 7.457031 -5.449219 7.164062 -6.351562 L 5.597656 -10.476562 L 6.59375 -10.476562 L 6.59375 -12.871094 L -0.183594 -12.871094 L -0.183594 -10.476562 L 0.828125 -10.476562 L 5.707031 0 L 9.097656 0 L 13.515625 -10.476562 L 14.417969 -10.476562 L 14.417969 -12.871094 L 9.1875 -12.871094 L 9.1875 -10.476562 L 10.164062 -10.476562 L 8.488281 -6.464844 C 8.121094 -5.542969 7.863281 -4.640625 7.828125 -4.125 Z M 7.734375 -4.125 "/></g></g></g><g fill="#0f6608" fill-opacity="1"><g transform="translate(326.57205, 45.750736)"><g><path d="M 14.878906 0 L 14.878906 -2.414062 L 13.589844 -2.414062 L 10.332031 -12.871094 L 3.257812 -12.871094 L 3.257812 -10.496094 L 4.015625 -10.496094 L 1.527344 -2.414062 L 0.277344 -2.414062 L 0.277344 0 L 6.132812 0 L 6.132812 -2.414062 L 4.695312 -2.414062 L 5.082031 -3.664062 L 8.859375 -3.664062 L 9.246094 -2.414062 L 7.496094 -2.414062 L 7.496094 0 Z M 5.765625 -5.875 L 6.960938 -9.851562 L 8.175781 -5.875 Z M 5.765625 -5.875 "/></g></g></g><g fill="#0f6608" fill-opacity="1"><g transform="translate(345.983456, 45.750736)"><g><path d="M 0.460938 0 L 3.683594 0 L 3.886719 -1.417969 C 4.585938 -0.589844 5.875 0.277344 7.734375 0.277344 C 9.925781 0.277344 12.613281 -0.753906 12.613281 -3.628906 C 12.613281 -7.957031 5.320312 -7.511719 5.320312 -9.410156 C 5.320312 -10.054688 6.058594 -10.386719 6.59375 -10.386719 C 7.882812 -10.386719 8.949219 -9.613281 8.949219 -8.25 L 12.28125 -8.25 L 12.28125 -12.871094 L 9.117188 -12.871094 L 8.929688 -11.324219 C 8.195312 -12.707031 6.628906 -13.203125 5.082031 -13.203125 C 3.277344 -13.203125 0.699219 -11.96875 0.699219 -9.246094 C 0.699219 -4.546875 7.769531 -5.15625 7.769531 -3.71875 C 7.769531 -2.945312 6.851562 -2.800781 6.207031 -2.800781 C 5.433594 -2.835938 3.886719 -3.09375 3.886719 -4.640625 L 0.460938 -4.640625 Z M 0.460938 0 "/></g></g></g><g fill="#0f6608" fill-opacity="1"><g transform="translate(271.70748, 86.286635)"><g><path d="M 21.542969 0 L 21.542969 -3.492188 L 19.675781 -3.492188 L 14.957031 -18.636719 L 4.71875 -18.636719 L 4.71875 -15.195312 L 5.8125 -15.195312 L 2.210938 -3.492188 L 0.398438 -3.492188 L 0.398438 0 L 8.878906 0 L 8.878906 -3.492188 L 6.796875 -3.492188 L 7.359375 -5.304688 L 12.824219 -5.304688 L 13.382812 -3.492188 L 10.851562 -3.492188 L 10.851562 0 Z M 8.34375 -8.503906 L 10.078125 -14.261719 L 11.835938 -8.503906 Z M 8.34375 -8.503906 "/></g></g></g><g fill="#0f6608" fill-opacity="1"><g transform="translate(299.799566, 86.286635)"><g><path d="M 0.667969 -18.636719 L 0.667969 -15.144531 L 2.160156 -15.144531 L 2.160156 -3.519531 L 0.667969 -3.519531 L 0.667969 0 L 9.25 0 L 9.25 -3.519531 L 7.625 -3.519531 L 7.625 -7.652344 L 9.652344 -7.652344 C 13.464844 -7.652344 16.664062 -9.410156 16.664062 -12.929688 C 16.664062 -15.96875 15.488281 -18.636719 9.304688 -18.636719 Z M 7.625 -15.171875 L 8.957031 -15.171875 C 10.503906 -15.171875 11.4375 -14.316406 11.4375 -12.742188 C 11.4375 -11.332031 10.371094 -10.53125 8.824219 -10.53125 L 7.625 -10.53125 Z M 7.625 -15.171875 "/></g></g></g><g fill="#0f6608" fill-opacity="1"><g transform="translate(323.014704, 86.286635)"><g><path d="M 0.667969 -18.636719 L 0.667969 -15.117188 L 2.347656 -15.117188 L 2.347656 -3.546875 L 0.667969 -3.546875 L 0.667969 0 L 9.519531 0 L 9.519531 -3.546875 L 7.863281 -3.546875 L 7.863281 -15.117188 L 9.519531 -15.117188 L 9.519531 -18.636719 Z M 0.667969 -18.636719 "/></g></g></g><g fill="#0f6608" fill-opacity="1"><g transform="translate(339.354149, 86.286635)"><g><path d="M 0.667969 0 L 5.332031 0 L 5.625 -2.054688 C 6.636719 -0.851562 8.503906 0.398438 11.199219 0.398438 C 14.371094 0.398438 18.261719 -1.09375 18.261719 -5.253906 C 18.261719 -11.515625 7.703125 -10.878906 7.703125 -13.625 C 7.703125 -14.558594 8.769531 -15.035156 9.542969 -15.035156 C 11.410156 -15.035156 12.957031 -13.917969 12.957031 -11.945312 L 17.78125 -11.945312 L 17.78125 -18.636719 L 13.195312 -18.636719 L 12.929688 -16.394531 C 11.863281 -18.394531 9.597656 -19.117188 7.359375 -19.117188 C 4.746094 -19.117188 1.011719 -17.328125 1.011719 -13.382812 C 1.011719 -6.585938 11.25 -7.464844 11.25 -5.386719 C 11.25 -4.265625 9.917969 -4.050781 8.984375 -4.050781 C 7.863281 -4.105469 5.625 -4.480469 5.625 -6.71875 L 0.667969 -6.71875 Z M 0.667969 0 "/></g></g></g></svg>